# xmcd CD database file
#
# Track frame offsets:
#	150
#	31395
#	57750
#	84947
#	110972
#	134472
#	164147
#	190177
#
# Disc length: 2916 seconds
#
# Revision: 0
# Processed by: cddbd v1.5PL3 Copyright (c) Steve Scherf et al.
# Submitted via: CDex 1.50
#
DISCID=6e0b6208
DTITLE=宮沢和史 - ジャズで聴く宮沢和史作品集
DYEAR=2000
DGENRE=Jazz
TTITLE0=風になりたい
TTITLE1=二人のハーモニー
TTITLE2=釣りに行こう
TTITLE3=島唄
TTITLE4=帰ろうかな
TTITLE5=berangkat-ブランカ-
TTITLE6=それだけでうれしい
TTITLE7=真夏の奇蹟
EXTD=YEAR: 2000
EXTT0=
EXTT1=
EXTT2=
EXTT3=
EXTT4=
EXTT5=
EXTT6=
EXTT7=
PLAYORDER=
